M48
INCH,TZ
T1C0.0157
T2C0.0315
T3C0.0394
T4C0.0394
T5C0.1260
%
G90
G05
T1
X24250Y-25500
X24500Y-41000
X26000Y-35250
X26750Y-45500
X36700Y-46800
X36750Y-35250
X38200Y-22100
X38700Y-44800
X39600Y-22100
X40500Y-45500
X41000Y-22100
X42700Y-22100
X43000Y-45500
X43750Y-35250
X45750Y-25750
T2
X36000Y-27000
X36000Y-30000
X37000Y-27000
X37000Y-30000
X38000Y-27000
X38000Y-30000
X39000Y-27000
X39000Y-30000
X40000Y-27000
X40000Y-30000
X41000Y-27000
X41000Y-30000
X42000Y-27000
X42000Y-30000
X43000Y-27000
X43000Y-30000
X44000Y-27000
X44000Y-30000
X45000Y-27000
X45000Y-30000
X24516Y-45500
X25500Y-45500
X39000Y-40500
X39000Y-43500
X40000Y-40500
X40000Y-43500
X41000Y-40500
X41000Y-43500
X42000Y-40500
X42000Y-43500
X43000Y-40500
X43000Y-43500
X44000Y-40500
X44000Y-43500
X45000Y-40500
X45000Y-43500
X28000Y-41250
X28000Y-44250
X29000Y-41250
X29000Y-44250
X30000Y-41250
X30000Y-44250
X31000Y-41250
X31000Y-44250
X32000Y-41250
X32000Y-44250
X33000Y-41250
X33000Y-44250
X34000Y-41250
X34000Y-44250
X35000Y-41250
X35000Y-44250
X26000Y-39750
X27000Y-39750
X28000Y-39750
X29000Y-39750
X30000Y-39750
X31000Y-39750
X32000Y-39750
X33000Y-39750
X34000Y-39750
X25000Y-27000
X25000Y-30000
X26000Y-27000
X26000Y-30000
X27000Y-27000
X27000Y-30000
X28000Y-27000
X28000Y-30000
X29000Y-27000
X29000Y-30000
X30000Y-27000
X30000Y-30000
X31000Y-27000
X31000Y-30000
X32000Y-27000
X32000Y-30000
X33000Y-27000
X33000Y-30000
X34000Y-27000
X34000Y-30000
X25500Y-32100
X25500Y-38100
X26500Y-32100
X26500Y-38100
X27500Y-32100
X27500Y-38100
X28500Y-32100
X28500Y-38100
X29500Y-32100
X29500Y-38100
X30500Y-32100
X30500Y-38100
X31500Y-32100
X31500Y-38100
X32500Y-32100
X32500Y-38100
X33500Y-32100
X33500Y-38100
X34500Y-32100
X34500Y-38100
X35500Y-32100
X35500Y-38100
X36500Y-32100
X36500Y-38100
X37500Y-32100
X37500Y-38100
X38500Y-32100
X38500Y-38100
X39500Y-32100
X39500Y-38100
X40500Y-32100
X40500Y-38100
X41500Y-32100
X41500Y-38100
X42500Y-32100
X42500Y-38100
X43500Y-32100
X43500Y-38100
X44500Y-32100
X44500Y-38100
T3
X31500Y-23500
X31500Y-24500
X32500Y-23500
X32500Y-24500
X33500Y-23500
X33500Y-24500
X34500Y-23500
X34500Y-24500
X35500Y-23500
X35500Y-24500
X36500Y-23500
X36500Y-24500
X37500Y-23500
X37500Y-24500
X38500Y-23500
X38500Y-24500
X39500Y-23500
X39500Y-24500
X40500Y-23500
X40500Y-24500
X41500Y-23500
X41500Y-24500
X42500Y-23500
X42500Y-24500
T4
X26970Y-23114
X26970Y-24886
X29530Y-23114
X29530Y-24886
T5
X44750Y-24000
X25250Y-24000
T0
M30
